<?xml version="1.0" encoding="UTF-8" standalone="no"?>
<svg width="645px" height="621px" viewBox="0 0 645 621" version="1.1" xmlns="http://www.w3.org/2000/svg" xmlns:xlink="http://www.w3.org/1999/xlink">
    <!-- Generator: Sketch 3.6.1 (26313) - http://www.bohemiancoding.com/sketch -->
    <title>Icon</title>
    <desc>Created with Sketch.</desc>
    <defs></defs>
    <g id="Page-1" stroke="none" stroke-width="1" fill="none" fill-rule="evenodd">
        <g id="Icon">
            <g id="Background" transform="translate(-316.000000, -324.000000)">
                <path d="M636.3963,0.9974 L0.0003,637.3934 L636.3963,1273.7904 L1272.7923,637.3934 L636.3963,0.9974 Z" id="Fill-1" fill="#186D9D"></path>
                <path d="M636.3963,0.9974 L0.0003,637.3934 L106.0663,743.4594 L742.4623,107.0644 L636.3963,0.9974 Z" id="Fill-2" fill="#2383B0"></path>
                <path d="M318.1981,955.5919 L212.1321,849.5259 L848.5281,213.1299 L954.5941,319.1959 L318.1981,955.5919 Z" id="Fill-3" fill="#2383B0"></path>
                <path d="M530.3301,1167.724 L424.2641,1061.658 L1060.6601,425.262 L1166.7261,531.328 L530.3301,1167.724 Z" id="Fill-4" fill="#2383B0"></path>
            </g>
            <path d="M253.925765,494.910208 L92.7507646,484.180208 C81.7997646,483.451208 74.4537646,472.620208 77.8257646,462.176208 L127.456765,308.458208 C128.430765,305.443208 128.534765,302.215208 127.757765,299.144208 L88.1567646,142.541208 C85.4667646,131.901208 93.4967646,121.567208 104.471765,121.547208 L266.003765,121.248208 C269.171765,121.242208 272.273765,120.343208 274.954765,118.656208 L411.655765,32.6002079 C420.942765,26.7532079 433.252765,31.1972079 436.663765,41.6292079 L486.864765,195.162208 C487.848765,198.173208 489.661765,200.846208 492.095765,202.874208 L616.181765,306.292208 C624.612765,313.318208 624.189765,326.399208 615.322765,332.866208 L484.816765,428.054208 C482.257765,429.921208 480.275765,432.471208 479.098765,435.412208 L419.087765,585.383208 C415.010765,595.573208 402.439765,599.213208 393.548765,592.778208 L262.690765,498.075208 C260.124765,496.217208 257.086765,495.120208 253.925765,494.910208" id="Star" fill="#FBDC99"></path>
            <g id="Dog" transform="translate(91.000000, 35.000000)">
                <path d="M309.873,102.0167 L258.803,233.4097 L303.822,286.7167 L330.177,288.3507 C330.177,288.3507 360.966818,203.223136 360.966818,177.915327 L330.177001,102.0167 L309.873,102.0167 Z" id="Fill-9" fill="#F0B5CD"></path>
                <path d="M107.3085,106.1453 L86.7055,154.6813 C107.4825,210.8213 120.5985,247.4773 124.8265,246.2573 C125.5775,246.0413 125.4535,235.7223 125.6825,233.6983 C140.0785,218.9633 148.5525,235.4663 162.9475,220.7313 L146.2225,106.1453 L107.3085,106.1453 Z" id="Fill-11" fill="#F0B5CD"></path>
                <path d="M258.844,496.7726 L381.919,426.0166 L332.376,296.1456 L193.175,217.8506 L110.137,301.6866 C104.795,319.3066 96.718,340.6766 84.257,363.6506 C72.529,385.2726 59.903,402.8136 48.677,416.4426 C53.537,419.4286 70.41,428.6986 77.342,445.4836 C84.42,462.6206 84.006,462.1346 84.42,476.5716 C84.833,491.0096 77.725,498.3516 72.923,508.7996 L147.072,484.5406 C173.873,469.0786 200.674,453.6156 227.474,438.1526" id="Fill-13" fill="#F5E5CD"></path>
                <path d="M320.2332,12.5531 C317.819195,12.5531002 272.7272,75.6631 265.9262,110.9871 C259.1252,146.3101 255.0792,147.9121 259.6522,174.2731 C261.4172,184.4501 263.1812,196.2531 262.8122,194.4331 C235.5772,183.3291 200.7052,188.0071 168.3822,203.0921 C169.0722,200.4101 169.4772,198.6481 169.4772,198.6481 L184.2482,122.3871 C184.2482,122.3871 140.835552,5.5501 137.2752,5.5501 C133.714848,5.5501 62.0162,74.7351 90.0412,167.8071 L98.8529925,188.002126 C97.5189925,148.126126 102.2212,119.6941 115.7602,116.4241 C118.2412,115.8241 121.4772,115.9591 125.6832,118.0191 C125.6832,118.0191 148.9112,128.7321 151.1612,198.6481 C151.3272,203.7811 151.5682,208.1421 151.8702,211.8511 C138.8822,219.5821 129.702734,227.794336 118.955734,238.439336 C118.955734,238.439336 119.945743,298.37792 84.9121765,362.260793 C84.9121765,362.260793 119.1402,351.5481 134.4512,327.9211 C149.7612,304.2931 167.6262,272.3601 175.1182,248.5631 C175.1182,248.5631 184.3382,232.8331 195.2882,232.2571 C169.1192,320.9141 180.7892,392.5091 216.4182,409.9451 C223.7522,413.5341 257.6792,410.8711 257.6792,410.8711 L227.4742,438.1531 C227.4742,438.1531 237.1512,460.4601 242.9282,462.9641 C260.2342,454.6981 318.2462,376.1591 336.0942,323.8871 C344.7922,298.4121 322.6472,277.2081 322.6472,277.2081 C318.7362,276.3141 314.7502,274.6161 310.7812,272.2281 C293.4822,261.8171 283.5032,242.5421 284.0312,222.3581 L284.1232,218.8131 C284.1232,218.8131 273.0592,157.7951 310.9122,126.2431 C312.9972,126.3971 314.9522,126.7851 316.7882,127.3731 C349.4222,137.8201 350.6942,213.1931 350.7892,225.0541 C354.9822,215.3101 358.9192,203.2071 360.8742,189.0361 C366.3802,149.1331 346.874409,98.5083748 346.874409,98.5083748 C346.874409,98.5083748 322.647205,12.5530998 320.2332,12.5531 Z" id="Fill-15" fill="#E3843A"></path>
                <path d="M195.9084,456.7429 C195.9084,456.7429 210.4064,494.7619 190.9174,511.5729 C171.4284,528.3839 135.5464,520.5529 135.5464,488.2809 L195.9084,456.7429 Z" id="Fill-17" fill="#EFB4CC"></path>
                <path d="M228.024997,437.951827 C268.668774,401.549659 318.8173,355.66 336.0943,323.887 C336.0943,323.887 299.346409,420.439223 242.018013,464.116599 C242.018013,464.116599 230.085895,445.697921 228.024997,437.951827 Z" id="Fill-19" fill="#B95727"></path>
                <path d="M135.539096,488.320106 C150.689096,483.037106 165.4794,479.5729 185.5644,477.7549 C189.6334,477.3869 196.899887,476.664841 200.766887,476.527841 C200.766887,476.527841 199.449722,468.026617 195.8804,456.8549 L135.539096,488.320106 Z" id="Fill-21" fill="#9E6780"></path>
                <path d="M48.6768,416.4423 C48.6768,416.4423 58.7091947,420.95678 69.9728094,433.35908 C75.8383024,439.817541 85.6651617,458.546502 85.0319219,476.765355 C84.3986822,494.984208 72.9228,508.7993 72.9228,508.7993 C72.9228,508.7993 11.1348,521.8803 3.7538,472.3003 L5.3058,465.6533 L48.6768,416.4423 Z" id="Fill-7" fill="#9E6780"></path>
                <path d="M269.2745,218.3011 C268.6245,217.1591 267.6455,215.5001 266.5675,213.1981 C264.3635,208.6191 261.5705,201.6971 259.5965,192.4361 C257.6275,183.1991 255.9155,171.7841 255.6095,158.5791 C255.4485,151.9811 255.6325,144.9421 256.3115,137.5551 C256.4035,136.6321 256.4955,135.7031 256.5885,134.7691 L256.7355,133.3191 L256.9125,131.9371 C257.0295,131.0121 257.1485,130.0821 257.2675,129.1461 C257.4105,128.1881 257.5555,127.2251 257.7005,126.2561 C258.2825,122.3671 259.0245,118.4811 259.8755,114.4951 C263.3185,98.5911 269.1495,81.8311 277.3565,65.1121 C281.4425,56.7841 286.1465,48.3891 291.4415,40.1761 C294.1165,36.0771 296.9465,32.0141 299.9365,28.0061 C301.4265,25.9991 302.9645,24.0111 304.5415,22.0391 C305.3205,21.0461 306.1325,20.0741 306.9345,19.0921 C307.7145,18.1401 308.4975,17.1851 309.2815,16.2291 C310.8715,14.2841 312.5485,12.2351 314.5305,10.2321 C315.0295,9.7331 315.5425,9.2361 316.0855,8.7471 C316.3605,8.5041 316.6275,8.2581 316.9185,8.0201 L317.3475,7.6621 C317.6355,7.4181 317.9045,7.0931 318.7125,6.5091 C319.1685,6.2051 319.7675,5.8461 320.6525,5.6101 C321.5025,5.3781 322.5435,5.3681 323.2745,5.5331 C323.7015,5.6121 323.9565,5.7071 324.2885,5.8221 C324.5875,5.9361 324.7935,6.0401 325.0435,6.1641 C325.2635,6.2801 325.4235,6.3811 325.6125,6.4981 C327.0385,7.5931 326.1055,6.8971 326.4685,7.1841 C326.4005,7.1001 327.0585,7.7911 327.2555,8.1241 C327.6025,8.6351 327.7515,8.9681 327.7855,9.0521 L328.1665,10.0041 C328.5185,11.0721 328.6485,11.8081 328.7925,12.5601 C328.9255,13.2951 329.0265,13.9841 329.1175,14.6401 L329.3415,16.1981 L329.7445,17.9891 C330.3085,20.4671 330.8745,22.9521 331.4425,25.4451 C333.7455,35.4361 336.0765,45.5481 338.4255,55.7411 C343.2065,76.0881 348.2915,96.7031 353.7415,117.2081 C356.4445,127.4651 359.2035,137.7151 362.0935,147.8571 C363.5385,152.9291 365.0165,157.9771 366.5405,162.9911 C367.2735,165.5761 368.1445,167.6781 368.7505,171.2191 C369.2565,174.2541 369.3145,177.3421 369.0405,180.2961 C368.4845,186.2351 366.7585,191.5451 365.2015,196.4951 C363.6445,201.4311 361.9585,206.4331 360.2545,211.2911 C358.5455,216.1721 356.7865,220.9921 355.0105,225.7591 C354.1145,228.1371 353.2225,230.5071 352.3335,232.8681 C351.8755,234.0581 351.4185,235.2461 350.9615,236.4311 C350.5025,237.5951 350.0435,238.7571 349.5855,239.9171 C345.9195,249.1921 342.3135,258.3121 338.7835,267.2391 C336.9365,271.8461 335.0615,275.9231 334.3875,279.8591 C334.2165,280.8391 334.1205,281.8051 334.0815,282.7641 C334.0795,283.2411 334.0645,283.7201 334.0995,284.1931 C334.1215,284.6651 334.2225,285.6611 334.2225,285.6611 C334.4515,287.5441 334.9855,289.6331 335.6045,291.7451 C336.8865,296.1281 338.1515,300.4521 339.3975,304.7111 C340.6505,308.9561 341.9105,313.1291 343.1725,317.2271 C345.7065,325.4171 348.2245,333.3111 350.7205,340.8641 C355.7165,355.9561 360.6305,369.7191 365.2445,381.7781 C369.8525,393.8511 374.2525,404.2181 377.8635,412.7651 C378.7625,414.9041 379.6135,416.9291 380.4145,418.8351 C380.8105,419.7911 381.1935,420.7171 381.5635,421.6121 C381.7445,422.0501 381.9235,422.4801 382.0985,422.9021 C382.2885,423.3311 382.4755,423.7531 382.6585,424.1671 C384.0985,427.4911 385.3065,430.3271 386.2385,432.6511 C388.1295,437.2841 389.0175,439.8181 389.0175,439.8181 C389.0175,439.8181 387.4865,437.6141 384.8425,433.3651 C383.5065,431.2481 381.9195,428.6061 380.0715,425.4911 C379.8435,425.1001 379.6125,424.7011 379.3765,424.2951 C379.1445,423.8731 378.9075,423.4441 378.6675,423.0071 C378.1985,422.1521 377.7145,421.2681 377.2135,420.3551 C376.2605,418.5051 375.2465,416.5391 374.1765,414.4621 C369.9945,406.1031 365.3815,395.7311 360.3715,383.7241 C355.3725,371.7011 350.0535,358.0511 344.5845,342.9931 C339.0875,327.9751 333.6335,311.4541 328.1535,294.0151 C327.4425,291.7581 326.7385,289.3951 326.3365,286.6861 L326.1575,285.2051 C326.0595,284.0061 326.0555,283.3201 326.0475,282.6331 C326.0655,281.2621 326.1725,279.8951 326.3735,278.5581 C327.1965,273.1871 329.3075,268.5271 330.8925,264.1971 C334.2795,255.2161 337.7405,246.0401 341.2595,236.7081 C341.7005,235.5421 342.1415,234.3731 342.5845,233.2021 C343.0095,232.0451 343.4365,230.8851 343.8645,229.7231 C344.7125,227.3661 345.5635,225.0011 346.4175,222.6271 C348.1075,217.8761 349.7755,213.0881 351.3885,208.2561 C353.0185,203.4071 354.5305,198.5901 356.0655,193.6191 C357.6065,188.6881 359.0355,183.9631 359.4165,179.4441 C359.6115,177.1861 359.5485,174.9871 359.1815,172.8371 C358.9725,171.1701 357.9655,168.3161 357.2205,165.8481 C355.6515,160.7811 354.1295,155.6881 352.6445,150.5771 C349.6745,140.3531 346.8365,130.0751 344.0765,119.7701 C338.6155,99.1461 333.5285,78.4391 328.7475,58.0061 C326.3295,47.7491 324.1025,37.6511 321.8705,27.6171 C321.3215,25.1011 320.7745,22.5931 320.2295,20.0931 L319.8115,18.1521 C319.6885,17.5081 319.6685,17.2571 319.6155,16.8831 C319.4155,15.3311 319.3355,14.7641 319.2475,14.2501 C319.1655,13.7541 319.0475,13.2441 319.0015,13.1091 C319.4505,13.8941 320.0555,14.4261 319.8615,14.2421 C320.1045,14.4271 319.0795,13.5931 320.3635,14.6141 C320.6315,14.7661 320.6995,14.7911 320.8495,14.8511 C321.0305,14.9231 321.1405,14.9471 321.4085,15.0101 C321.8315,15.0951 322.5485,15.1171 323.0935,14.9511 C323.6705,14.7931 323.9915,14.5931 324.1835,14.4601 C324.4755,14.2411 323.6455,14.9591 323.6455,14.9591 L323.1025,15.4071 C322.9025,15.5651 322.7055,15.7451 322.5065,15.9171 C322.1105,16.2661 321.7165,16.6411 321.3235,17.0261 C319.7515,18.5821 318.2255,20.3921 316.6455,22.2941 C315.8395,23.2581 315.0355,24.2211 314.2335,25.1811 C313.4575,26.1151 312.6715,27.0371 311.9165,27.9831 C310.3895,29.8581 308.8985,31.7501 307.4515,33.6631 C304.5485,37.4811 301.7945,41.3581 299.1885,45.2751 C293.9415,53.1071 289.2855,61.0321 285.1655,69.0411 C276.9295,84.9891 271.0855,101.0301 267.3815,116.2271 C266.4645,120.0201 265.6395,123.7911 264.9935,127.4391 C264.8315,128.3541 264.6695,129.2631 264.5085,130.1681 C264.3645,131.1001 264.2205,132.0271 264.0775,132.9481 L263.8645,134.3251 L263.6995,135.6291 C263.5855,136.5241 263.4725,137.4131 263.3605,138.2971 C262.5175,145.3741 262.1585,152.1431 262.1425,158.5071 C262.0935,171.2441 263.4535,182.3311 265.1165,191.3371 C266.8185,200.3931 268.1555,207.5081 269.0665,212.3601 C269.2715,213.5911 269.4425,214.6881 269.6415,215.6301 C269.8025,216.5821 269.9375,217.3831 270.0455,218.0281 C270.2375,219.3271 270.3135,220.0051 270.3135,220.0051 C270.3135,220.0051 269.9445,219.4301 269.2745,218.3011 Z" id="Fill-23"></path>
                <path d="M257.5947,193.5829 C255.9437,193.2469 253.9157,193.0499 251.6287,192.7169 C250.4787,192.5749 249.2757,192.3589 247.9787,192.2499 C246.6877,192.1229 245.3297,191.9899 243.9137,191.8509 C243.2077,191.7799 242.4867,191.7069 241.7527,191.6329 C241.0177,191.5659 240.2627,191.5519 239.4987,191.5079 C237.9757,191.4159 236.3997,191.3199 234.7807,191.2219 C233.1627,191.1409 231.4947,191.1709 229.7967,191.1389 C228.9487,191.1259 228.0917,191.1129 227.2257,191.0999 C226.3607,191.0889 225.4867,191.1479 224.6067,191.1679 C222.8477,191.2229 221.0607,191.2789 219.2517,191.3349 C217.4497,191.4769 215.6257,191.6199 213.7867,191.7649 C211.9447,191.8439 210.1147,192.1909 208.2647,192.3929 C206.4167,192.6249 204.5587,192.8219 202.7307,193.2139 C200.8957,193.5529 199.0537,193.8579 197.2307,194.2139 C195.4247,194.6459 193.6257,195.0769 191.8407,195.5029 C190.0397,195.8759 188.3217,196.4839 186.5917,196.9729 C184.8777,197.5139 183.1407,197.9269 181.5177,198.5759 C179.8747,199.1689 178.2667,199.7759 176.6727,200.3259 C175.8677,200.5819 175.1097,200.9249 174.3557,201.2529 C173.5997,201.5799 172.8537,201.9029 172.1177,202.2219 C170.6547,202.8809 169.1817,203.4279 167.8427,204.1289 C166.4897,204.8069 165.1817,205.4629 163.9267,206.0929 C162.6667,206.7189 161.4517,207.3119 160.3627,207.9899 C159.2497,208.6329 158.1937,209.2429 157.2017,209.8159 C156.2107,210.3949 155.2667,210.9179 154.4177,211.4359 C153.5867,211.9849 152.8247,212.4889 152.1357,212.9439 C149.3717,214.7649 147.7407,215.7709 147.7407,215.7709 L146.4037,214.1669 C146.4037,214.1669 147.7997,212.8349 150.3357,210.5649 C150.9717,209.9969 151.6757,209.3689 152.4417,208.6849 C153.2227,208.0179 154.1387,207.3939 155.0817,206.6729 C157.0007,205.2799 159.0807,203.5509 161.6287,202.1009 C162.8777,201.3309 164.1787,200.5289 165.5257,199.6979 C166.1877,199.2569 166.9127,198.9099 167.6427,198.5429 C168.3717,198.1749 169.1127,197.8019 169.8637,197.4229 C170.6157,197.0439 171.3787,196.6599 172.1507,196.2719 C172.9217,195.8809 173.6997,195.4759 174.5237,195.1559 C176.1507,194.4629 177.8327,193.8009 179.5357,193.1029 C181.2197,192.3509 183.0337,191.8819 184.8267,191.2739 C186.6317,190.7099 188.4377,190.0499 190.3287,189.6519 C192.2057,189.2009 194.0967,188.7459 195.9967,188.2899 C197.9147,187.9329 199.8507,187.6249 201.7807,187.2939 C203.7087,186.9339 205.6607,186.7719 207.5997,186.5779 C209.5407,186.3999 211.4677,186.1509 213.3937,186.1319 C215.3157,186.0749 217.2217,186.0179 219.1057,185.9619 C220.9887,185.9859 222.8477,186.0609 224.6727,186.1289 C225.5857,186.1719 226.4917,186.1769 227.3847,186.2509 C228.2777,186.3379 229.1617,186.4249 230.0367,186.5109 C231.7837,186.7049 233.4947,186.8339 235.1477,187.0699 C238.4477,187.6049 241.5717,188.0139 244.3967,188.7309 C245.8117,189.0539 247.1677,189.3629 248.4577,189.6579 C249.7427,189.9639 250.9457,190.3699 252.0797,190.6889 C254.3477,191.3499 256.3107,191.9329 257.8727,192.5499 C261.0257,193.7129 262.8127,194.4329 262.8127,194.4329 C262.8127,194.4329 260.9057,194.1589 257.5947,193.5829 Z" id="Fill-25"></path>
                <path d="M265.743,403.1996 C265.065,403.9226 264.223,404.8196 263.222,405.8866 C262.203,406.9406 261.022,408.1606 259.685,409.5426 C254.299,415.0266 246.214,422.8996 235.324,432.2896 C229.883,436.9886 223.687,441.9986 216.739,447.1946 C209.793,452.3896 202.121,457.8176 193.623,463.1666 C185.147,468.5426 175.909,473.9506 165.862,479.0766 C155.837,484.2166 144.978,489.1406 133.501,493.6476 C122.066,498.1726 110.013,502.7546 97.186,506.6166 C90.777,508.5586 84.159,510.2796 77.326,511.6436 C70.493,512.9976 63.44,514.0356 56.162,514.3286 C48.897,514.5736 41.363,514.1446 33.905,512.1076 C30.186,511.0906 26.506,509.6226 23.073,507.5976 C19.635,505.6176 16.444,502.9816 13.783,500.0426 C11.121,497.1146 8.823,493.8956 6.861,490.4706 C4.908,487.0386 3.268,483.4086 2.113,479.5166 C1.541,477.5676 1.087,475.5546 0.874,473.4206 C0.694,471.2856 0.623,469.0246 1.517,466.4896 C1.751,465.8606 2.06,465.2156 2.486,464.5916 C2.695,464.2836 2.95,463.9676 3.203,463.6936 L5.658,461.0936 C6.969,459.7056 8.284,458.3146 9.601,456.9206 C20.123,445.7656 30.822,434.4766 40.955,422.4516 C51.14,410.4786 60.773,397.7956 69.54,384.3916 C87.099,357.6036 100.707,327.6566 109.319,296.2736 C109.875,294.3176 110.345,292.3376 110.863,290.3716 L111.622,287.4176 L112.31,284.4516 C113.188,280.5126 113.922,276.5496 114.511,272.5486 C115.685,264.5556 116.236,256.4806 116.236,248.4236 C116.231,244.4196 116.101,240.3136 115.789,236.4146 C115.593,234.5836 115.161,232.7216 114.519,230.9706 C114.198,230.0916 113.823,229.2316 113.399,228.3986 C113.186,227.9816 112.96,227.5716 112.724,227.1686 L111.955,225.8406 C109.908,222.3666 107.913,218.7726 106.009,215.1576 C104.117,211.5486 102.31,207.9006 100.614,204.2086 C93.84,189.4426 88.704,173.9986 85.798,158.2776 C82.865,142.5706 82.104,126.6276 83.565,111.1426 C84.991,95.6506 88.554,80.6406 93.739,66.6086 C98.916,52.5616 105.693,39.4956 113.42,27.5316 C117.294,21.5536 121.418,15.8496 125.795,10.4676 C127.984,7.7746 130.229,5.1606 132.564,2.6386 C133.05,2.1666 132.777,2.3916 133.316,1.9496 C134.098,1.4306 134.28,1.3336 134.464,1.2416 C135.216,0.8986 136.032,0.7166 136.844,0.7016 C138.469,0.6566 140.076,1.3296 141.231,2.5026 C141.795,3.0746 142.249,3.8476 142.509,4.4906 L143.914,7.9486 C148.943,20.1856 153.801,32.0086 158.465,43.3586 C163.115,54.7146 167.571,65.5976 171.809,75.9476 C176.036,86.3026 180.075,96.1136 183.776,105.3706 C184.707,107.6826 185.623,109.9576 186.524,112.1946 C186.757,112.7756 186.99,113.3536 187.221,113.9296 C187.711,115.3376 187.818,115.7106 187.912,116.0856 C188.283,117.5896 188.441,119.1306 188.39,120.6526 C188.365,121.4146 188.284,122.1696 188.154,122.9136 C188.055,123.4826 187.956,124.0496 187.858,124.6136 C187.69,125.7036 187.524,126.7836 187.36,127.8536 C187.061,130.0586 186.768,132.2216 186.481,134.3416 C185.927,138.6226 185.395,142.7296 184.887,146.6536 C184.341,150.5856 183.779,154.3356 183.219,157.8966 C180.913,172.1326 178.078,183.2516 175.299,190.6396 C173.938,194.3396 172.594,197.0996 171.579,198.9136 C171.084,199.8226 170.647,200.4926 170.361,200.9406 C170.076,201.3886 166.858,199.8916 166.858,199.8916 C167.315,198.7786 167.595,198.1276 167.896,197.2216 C168.545,195.4416 169.386,192.7286 170.263,189.0916 C172.045,181.8266 173.844,170.8736 175.693,156.7846 C176.18,153.2656 176.645,149.5446 177.129,145.6346 C177.628,141.7146 178.15,137.6126 178.693,133.3366 C178.981,131.1806 179.273,128.9816 179.572,126.7386 C179.746,125.5906 179.922,124.4316 180.1,123.2616 C180.197,122.6996 180.294,122.1346 180.392,121.5666 C180.551,119.5666 180.474,118.7486 180.283,117.9486 C179.677,116.1706 179.465,115.6336 179.252,115.0946 C178.366,112.8506 177.466,110.5696 176.551,108.2516 C172.867,98.9866 169.048,89.0886 164.992,78.6666 C160.946,68.2386 156.692,57.2756 152.253,45.8356 C147.829,34.3896 143.22,22.4676 138.45,10.1276 C137.983,8.9366 137.514,7.7406 137.044,6.5396 C134.49,8.9566 132.282,11.4566 130.128,14.0366 C125.817,19.1956 121.729,24.6916 117.88,30.4606 C110.167,41.9906 103.558,54.7286 98.404,68.3466 C93.266,81.9676 89.705,96.5346 88.217,111.5886 C86.695,126.6356 87.328,142.1506 90.085,157.4936 C92.816,172.8486 97.733,187.9936 104.286,202.5356 C105.926,206.1716 107.677,209.7676 109.513,213.3296 C111.358,216.8756 113.287,220.3656 115.343,223.8846 L116.095,225.1906 C116.37,225.6626 116.632,226.1426 116.879,226.6296 C117.373,227.6046 117.808,228.6106 118.18,229.6386 C118.926,231.7026 119.418,233.8276 119.649,236.0386 C119.973,240.2446 120.081,244.2826 120.079,248.4256 C120.056,256.6646 119.468,264.9226 118.243,273.0986 C117.632,277.1796 116.863,281.2586 115.95,285.2996 L115.243,288.3076 L114.466,291.2926 C113.938,293.2796 113.456,295.2796 112.888,297.2566 C104.214,329.0016 90.482,359.3686 72.76,386.4826 C63.99,400.1016 54.314,412.9496 44.31,425.2416 C34.265,437.5036 23.91,449.2406 13.65,460.6466 C12.371,462.0736 11.094,463.4986 9.82,464.9196 L7.912,467.0516 C7.169,467.9736 7.065,468.1936 6.977,468.4576 C6.607,469.5336 6.575,471.1736 6.776,472.7806 C6.974,474.4106 7.382,476.0906 7.909,477.7426 C10.079,484.3676 13.892,490.6076 18.586,495.5786 C23.198,500.5476 29.24,503.6396 35.735,505.3416 C42.236,507.0526 49.106,507.4126 55.865,507.1116 C69.446,506.5066 82.642,503.3656 95.181,499.8116 C107.74,496.1886 119.661,491.8186 131.091,487.4476 C153.961,479.0096 173.913,468.9166 190.952,458.8176 C199.466,453.7606 207.233,448.6826 214.299,443.8116 C221.353,438.9226 227.668,434.1886 233.307,429.8236 C238.934,425.4416 243.837,421.3696 248.062,417.7766 C252.267,414.1606 255.78,411.0036 258.616,408.4346 C260.03,407.1456 261.28,406.0076 262.359,405.0246 C263.425,404.0226 264.321,403.1796 265.043,402.5006 C266.488,401.1426 267.233,400.4426 267.233,400.4426 C267.799,401.0076 267.099,401.7536 265.743,403.1996 Z" id="Fill-27"></path>
                <path d="M232.2718,434.9963 C232.2718,434.9963 232.3818,435.3533 232.5888,436.0233 C232.7908,436.7223 233.1098,437.6163 233.4978,438.7853 C233.9148,439.9723 234.4308,441.4123 235.1018,443.0443 C235.7518,444.6833 236.5838,446.4993 237.4838,448.4943 C239.2968,452.4803 241.6928,457.0443 244.3718,461.9413 C245.0368,463.1693 245.7128,464.4173 246.3978,465.6803 C247.0928,466.9293 247.7968,468.1943 248.5058,469.4683 C249.9348,472.0203 251.3988,474.6093 252.8978,477.1803 C255.8868,482.3273 258.9548,487.4403 261.8398,492.2373 C263.2898,494.6263 264.6908,496.9363 266.0198,499.1273 C267.3718,501.3163 268.6508,503.3863 269.8308,505.2973 C272.1888,509.1193 274.0768,512.3583 275.4288,514.6043 C276.7538,516.8693 277.5108,518.1643 277.5108,518.1643 C277.5108,518.1643 276.5628,517.0023 274.9028,514.9693 C273.2718,512.9163 270.8968,510.0153 268.1388,506.4703 C266.7618,504.6963 265.2688,502.7753 263.6908,500.7423 C262.1028,498.6713 260.5188,496.4923 258.8588,494.2133 C255.5528,489.6623 252.1108,484.7413 248.8028,479.7203 C247.1498,477.2083 245.5108,474.6853 243.9398,472.1723 C243.1628,470.9063 242.3918,469.6503 241.6308,468.4093 C240.8868,467.1663 240.1518,465.9383 239.4298,464.7303 C236.5838,459.8723 234.0198,455.2133 232.0128,451.0813 C230.9958,449.0223 230.1688,447.0743 229.4618,445.3313 C228.7498,443.5913 228.1948,442.0393 227.7468,440.7573 C227.3068,439.4443 226.9898,438.3843 226.8118,437.7333 C226.6208,437.0593 226.5188,436.6993 226.5188,436.6993 L232.2718,434.9963 Z" id="Fill-29"></path>
                <path d="M171.2738,475.2409 C171.2758,475.2359 171.2258,475.3579 171.1988,475.4529 C171.1538,475.5959 171.0868,475.8049 171.0018,476.0719 C170.9158,476.3719 170.8098,476.7359 170.6898,477.1529 C170.5628,477.5719 170.4608,478.0729 170.3168,478.6049 C170.2028,479.1509 170.0588,479.7359 169.9408,480.3729 C169.8038,481.0039 169.7088,481.6819 169.5838,482.3849 C169.4518,483.0859 169.4008,483.8259 169.2748,484.5729 C169.2028,485.3259 169.1038,486.0939 169.0518,486.8679 C169.0038,487.6419 168.9128,488.4219 168.8948,489.1929 C168.8868,489.9619 168.8098,490.7289 168.8078,491.4699 C168.8128,492.2109 168.7928,492.9329 168.7778,493.6229 C168.7868,494.3129 168.7948,494.9649 168.8018,495.5669 C168.7958,496.7819 168.8418,497.7989 168.8608,498.5169 C168.8778,499.2349 168.8698,499.6539 168.8698,499.6539 C168.8698,499.6539 168.6788,499.2879 168.3778,498.6309 C168.1028,497.9689 167.6058,497.0409 167.2128,495.8669 C167.0018,495.2829 166.7628,494.6489 166.5508,493.9669 C166.3528,493.2829 166.1398,492.5569 165.9448,491.7989 C165.7538,491.0409 165.5868,490.2459 165.4298,489.4359 C165.2688,488.6249 165.1748,487.7899 165.0458,486.9539 C164.9488,486.1169 164.9008,485.2709 164.8308,484.4369 C164.8038,483.6009 164.7798,482.7759 164.8028,481.9739 C164.8288,480.3699 164.9968,478.8619 165.2128,477.5729 C165.4418,476.2809 165.7258,475.2079 165.9808,474.4479 C166.1118,474.0519 166.2168,473.7859 166.3248,473.5219 C166.4168,473.3089 166.4648,473.1949 166.4648,473.1949 L171.2738,475.2409 Z" id="Fill-33"></path>
                <path d="M250.3996,254.6255 C249.6686,255.7125 248.8926,256.7695 248.0926,257.7945 C247.2856,258.8145 246.4776,259.8375 245.6406,260.8315 L243.0736,263.7585 C242.2166,264.7345 241.3146,265.6625 240.4136,266.5935 L237.6946,269.3715 C236.7736,270.2835 235.8146,271.1485 234.8746,272.0405 L232.0046,274.6585 C231.0626,275.5525 230.0476,276.3535 229.0546,277.1835 C227.0726,278.8495 225.0316,280.4465 223.0066,282.0665 L219.8696,284.3665 C218.8346,285.1475 217.7606,285.8755 216.6836,286.5995 L213.4546,288.7765 L210.1476,290.8395 C209.0556,291.5435 207.9316,292.1975 206.7946,292.8315 L203.3996,294.7565 L205.4986,290.4815 C205.4146,289.9895 205.4146,290.0905 205.3926,290.0115 C205.3556,289.9355 205.3696,289.9665 205.3696,289.9735 C205.3706,289.9835 205.3686,289.9945 205.3646,290.0075 L205.4126,290.1085 C205.4466,290.2385 205.5876,290.4455 205.7066,290.6465 C205.9886,291.0635 206.3556,291.5305 206.8106,291.9895 C207.2076,292.4615 207.7946,292.8965 208.2746,293.3645 C208.8446,293.7955 209.3986,294.2435 209.9876,294.6725 L211.8076,295.9715 L213.7496,297.1945 C214.3846,297.6195 215.0916,297.9675 215.7656,298.3555 C216.4546,298.7265 217.1196,299.1285 217.8246,299.4945 L219.9266,300.6145 C220.6226,301.0005 221.3426,301.3495 222.0676,301.6905 C222.7906,302.0375 223.5176,302.3755 224.2336,302.7555 C224.9466,303.1375 225.6846,303.4705 226.4196,303.8145 L228.6296,304.8485 C229.3596,305.2215 230.0956,305.5835 230.8436,305.9165 C232.3366,306.5895 233.8206,307.3185 235.3056,308.0845 L235.1826,308.5695 L230.4426,307.3325 C228.8576,306.9405 227.3066,306.4205 225.7356,305.9705 C224.1616,305.5295 222.6226,304.9715 221.0766,304.4405 C220.3016,304.1785 219.5296,303.9075 218.7726,303.5945 L216.4886,302.6935 C215.7206,302.4105 214.9876,302.0355 214.2356,301.7105 C213.4926,301.3645 212.7296,301.0625 212.0086,300.6685 L209.8186,299.5385 L207.6936,298.2795 C207.0006,297.8335 206.3266,297.3525 205.6446,296.8885 C205.0086,296.3535 204.3186,295.8905 203.7286,295.2945 C203.1076,294.7375 202.5336,294.1215 202.0096,293.4545 C201.7586,293.1105 201.4996,292.7725 201.2956,292.3845 C201.1806,292.2015 201.0856,292.0015 200.9996,291.7935 C200.9036,291.5825 200.8346,291.3945 200.7736,291.0985 L200.7146,290.8155 L200.9976,290.6405 C203.1676,289.3045 205.3776,288.0355 207.5136,286.6455 C209.6646,285.2785 211.8056,283.8995 213.9226,282.4805 C216.0616,281.0945 218.1336,279.6085 220.2366,278.1685 C222.3016,276.6755 224.3896,275.2125 226.4216,273.6725 C228.4756,272.1615 230.4876,270.5955 232.5056,269.0375 C234.5056,267.4565 236.4996,265.8675 238.4676,264.2455 C240.4306,262.6195 242.3936,260.9915 244.3326,259.3355 C246.2646,257.6725 248.1856,255.9925 250.0556,254.2635 L250.3996,254.6255 Z" id="Fill-35"></path>
                <path d="M206.4918,288.5131 C206.4918,288.5131 206.6848,288.6171 207.0458,288.8111 C207.3848,288.9961 207.9208,289.2671 208.6128,289.6121 C209.9998,290.2871 212.0058,291.2461 214.4848,292.2611 C215.7138,292.7921 217.0758,293.2971 218.5098,293.8541 C219.9528,294.3831 221.4828,294.9301 223.0778,295.4591 C224.6818,295.9581 226.3298,296.5241 228.0388,296.9741 C228.8908,297.2131 229.7498,297.4531 230.6118,297.6951 C231.4818,297.9051 232.3558,298.1171 233.2298,298.3281 C234.9738,298.7781 236.7418,299.1131 238.4828,299.4561 C240.2188,299.8351 241.9518,300.0491 243.6238,300.3171 C245.2938,300.6091 246.9248,300.7321 248.4698,300.9041 C249.2438,300.9841 249.9958,301.0601 250.7238,301.1351 C251.4538,301.1741 252.1598,301.2111 252.8368,301.2471 C254.1928,301.3101 255.4388,301.4071 256.5428,301.4241 C257.6488,301.4211 258.6118,301.4191 259.4058,301.4171 C260.9968,301.4141 261.9058,301.4121 261.9058,301.4121 C261.9058,301.4121 260.9998,301.4921 259.4158,301.6321 C258.6228,301.7021 257.6588,301.7871 256.5528,301.8851 C255.4448,301.9641 254.1928,301.9741 252.8258,302.0291 C252.1408,302.0511 251.4278,302.0741 250.6898,302.0981 C249.9518,302.0871 249.1888,302.0751 248.4048,302.0621 C246.8358,302.0231 245.1738,302.0391 243.4648,301.8911 C241.7548,301.7671 239.9758,301.7001 238.1878,301.4681 C236.3938,301.2731 234.5668,301.0861 232.7568,300.7831 C231.8478,300.6441 230.9398,300.5061 230.0348,300.3681 C229.1358,300.1971 228.2398,300.0281 227.3508,299.8601 C225.5648,299.5491 223.8358,299.1191 222.1478,298.7481 C220.4688,298.3481 218.8528,297.9221 217.3218,297.5061 C215.7998,297.0621 214.3518,296.6611 213.0348,296.2221 C210.3858,295.3951 208.2098,294.5781 206.6818,293.9901 C205.9218,293.6891 205.3198,293.4481 204.8918,293.2611 C204.4868,293.0861 204.2708,292.9921 204.2708,292.9921 L206.4918,288.5131 Z" id="Fill-37"></path>
                <path d="M140.0541,295.9254 C139.9951,295.4674 139.9001,295.0144 139.7781,294.5694 C138.3021,289.2144 128.3961,255.5814 120.9471,288.9254 C112.9341,324.7924 144.1431,327.6904 140.0541,295.9254" id="Fill-39"></path>
                <path d="M110.2053,266.3793 C110.2053,266.3793 110.2883,266.2613 110.4433,266.0393 C110.6143,265.7943 110.8643,265.4553 111.1743,265.0643 C111.4803,264.6553 111.8853,264.2003 112.3333,263.6613 C112.8083,263.1493 113.3173,262.5503 113.9303,261.9533 C114.5313,261.3453 115.1923,260.6993 115.9353,260.0643 C116.6463,259.3973 117.4823,258.7873 118.3113,258.1283 C119.1743,257.5083 120.0763,256.8813 121.0243,256.3013 C122.0013,255.7613 122.9473,255.1493 123.9953,254.7143 L125.5263,254.0123 C126.0513,253.8133 126.5833,253.6393 127.1033,253.4553 C127.6303,253.2873 128.1313,253.0673 128.6603,252.9493 C129.1863,252.8273 129.7053,252.7063 130.2163,252.5873 C131.2243,252.3063 132.2373,252.2253 133.1833,252.1153 C133.6573,252.0653 134.1153,252.0003 134.5603,251.9673 C135.0073,251.9693 135.4403,251.9713 135.8553,251.9723 C136.6833,251.9923 137.4383,251.9463 138.1043,252.0193 C138.7673,252.1043 139.3463,252.1773 139.8223,252.2373 C140.7683,252.3583 141.3093,252.4273 141.3093,252.4273 C141.3093,252.4273 140.7633,252.4203 139.8093,252.4093 C139.3343,252.4033 138.7583,252.3963 138.0973,252.3883 C137.4393,252.3913 136.6983,252.5233 135.8943,252.5963 C135.4943,252.6403 135.0763,252.6863 134.6453,252.7343 C134.2183,252.8163 133.7813,252.9303 133.3323,253.0313 C132.4343,253.2423 131.4853,253.4253 130.5543,253.8073 C130.0853,253.9743 129.6083,254.1453 129.1253,254.3173 C128.6423,254.4823 128.1883,254.7503 127.7143,254.9633 C127.2473,255.1913 126.7753,255.4203 126.3023,255.6503 L124.9493,256.4723 C124.0273,256.9803 123.2083,257.6613 122.3683,258.2573 C121.5543,258.8943 120.7893,259.5693 120.0633,260.2273 C119.3683,260.9263 118.6713,261.5653 118.0893,262.2553 C117.4773,262.9123 116.9423,263.5723 116.4593,264.1873 C115.9663,264.7913 115.5693,265.3893 115.1953,265.8963 C114.8523,266.4233 114.5343,266.8733 114.3123,267.2583 C114.0713,267.6443 113.9093,267.9313 113.8083,268.1183 C113.6933,268.3293 113.6323,268.4423 113.6323,268.4423 L110.2053,266.3793 Z" id="Fill-41"></path>
                <path d="M283.0066,216.4706 C282.5636,215.0636 282.1496,213.3306 281.8026,211.3236 C281.4736,209.3186 281.1986,207.0426 281.0766,204.5586 C280.9526,202.0736 280.9386,199.3806 281.1036,196.5436 C281.2706,193.7066 281.5536,190.7256 281.9256,187.6516 C282.2756,184.5756 282.7736,181.4146 283.3226,178.2106 C283.9296,175.0156 284.6256,171.7846 285.4586,168.5846 C286.2616,165.3796 287.2086,162.2036 288.2626,159.1216 C289.3726,156.0546 290.5036,153.0516 291.8086,150.2266 C293.0576,147.3816 294.5286,144.7446 295.9566,142.2806 C296.6896,141.0576 297.4596,139.8986 298.1836,138.7726 C298.9896,137.6936 299.7326,136.6336 300.5056,135.6586 C301.3136,134.7086 302.0446,133.7696 302.8126,132.9366 C303.5966,132.1156 304.3316,131.3346 305.0566,130.6346 C305.8096,129.9666 306.5146,129.3406 307.1656,128.7626 C307.8266,128.1986 308.4876,127.7406 309.0606,127.3076 C310.1896,126.4176 310.93176,126.170666 310.93176,126.170666 C310.93176,126.170666 308.4196,128.8546 307.8496,129.4856 C307.2906,130.1236 306.6866,130.8146 306.0406,131.5526 C305.4276,132.3166 304.8186,133.1646 304.1416,134.0216 C303.4866,134.8986 302.8766,135.8816 302.1996,136.8676 C301.5556,137.8796 300.9476,138.9766 300.2866,140.0826 C299.6866,141.2306 299.0346,142.3946 298.4286,143.6266 C297.2376,146.1036 296.0786,148.7576 295.0416,151.5716 C293.9466,154.3606 293.0266,157.3276 292.1306,160.3456 C291.3216,163.3936 290.4546,166.4756 289.8046,169.6166 C289.0996,172.7426 288.5606,175.9076 288.0476,179.0216 C287.5516,182.1396 287.1036,185.2156 286.7986,188.2086 C286.4626,191.1976 285.4586,201.856992 285.4586,201.856992 L284.148722,220.794728" id="Fill-45" fill="#322931"></path>
                <path d="M289.6426,170.4338 C289.6426,170.4338 289.7946,171.0588 290.0596,172.1528 C290.1256,172.4248 290.1996,172.7268 290.2796,173.0558 C290.3666,173.3638 290.4606,173.6968 290.5616,174.0528 C290.7556,174.7658 290.9846,175.5728 291.2916,176.4478 C291.5646,177.3358 291.9286,178.2618 292.3166,179.2468 C292.4946,179.7478 292.7426,180.2258 292.9646,180.7338 C293.1926,181.2398 293.4216,181.7608 293.7016,182.2618 C293.9766,182.7668 294.2316,183.2978 294.5346,183.8088 C294.8436,184.3168 295.1556,184.8318 295.4706,185.3508 C296.1526,186.3558 296.8486,187.3858 297.6416,188.3498 C298.0176,188.8478 298.4196,189.3258 298.8396,189.7878 C299.2596,190.2498 299.6476,190.7408 300.0916,191.1738 C300.5256,191.6188 300.9556,192.0608 301.3806,192.4968 C301.8256,192.9158 302.2656,193.3308 302.6986,193.7378 C303.5526,194.5688 304.4586,195.2868 305.2796,196.0158 C306.1346,196.7068 306.9426,197.3608 307.6886,197.9638 C309.2166,199.1288 310.4966,200.0998 311.4166,200.7458 C312.3286,201.4048 312.8506,201.7808 312.8506,201.7808 C312.8506,201.7808 312.2876,201.4698 311.3016,200.9278 C310.3076,200.3958 308.9176,199.5868 307.2456,198.6078 C306.4236,198.0938 305.5326,197.5378 304.5906,196.9488 C303.6756,196.3168 302.6696,195.7018 301.6976,194.9628 C301.2046,194.6008 300.7036,194.2328 300.1966,193.8598 C299.7046,193.4638 299.2056,193.0638 298.7036,192.6598 C298.1896,192.2678 297.7236,191.8088 297.2266,191.3798 C296.7296,190.9498 296.2456,190.4998 295.7846,190.0238 C294.8256,189.1088 293.9486,188.1058 293.0846,187.1128 C292.6766,186.5948 292.2716,186.0818 291.8716,185.5748 C291.4766,185.0628 291.1306,184.5258 290.7656,184.0118 C290.3936,183.4998 290.0776,182.9698 289.7626,182.4518 C289.4536,181.9318 289.1196,181.4338 288.8606,180.9208 C288.3096,179.9078 287.7906,178.9438 287.3806,178.0298 C286.9376,177.1308 286.5756,176.2748 286.2626,175.5078 C286.1036,175.1258 285.9546,174.7678 285.8166,174.4378 C285.6966,174.1198 285.5866,173.8278 285.4866,173.5638 C285.0916,172.5098 284.8646,171.9078 284.8646,171.9078 L289.6426,170.4338 Z" id="Fill-47" fill="#322931"></path>
                <path d="M149.627294,188.230998 C149.479294,186.123998 149.1458,183.867 148.9768,181.453 C148.8168,179.038 148.6278,176.489 148.3258,173.861 C148.0528,171.231 147.6828,168.523 147.2548,165.779 C146.8128,163.039 146.3448,160.255 145.7318,157.505 C145.1678,154.74 144.4088,152.031 143.7108,149.346 C142.9338,146.69 142.1348,144.078 141.1828,141.623 C140.2818,139.144 139.2788,136.805 138.2438,134.621 C137.7178,133.535 137.1498,132.509 136.6288,131.496 C136.0548,130.52 135.5278,129.552 134.9678,128.658 C134.3788,127.787 133.8478,126.918 133.2778,126.143 C132.6958,125.373 132.1438,124.643 131.6248,123.957 C131.0628,123.303 130.5358,122.69 130.0488,122.124 C129.5518,121.564 129.0378,121.11 128.6088,120.655 C127.7588,119.733 126.9638,119.153 126.4648,118.7 C125.9548,118.256 125.6828,118.019 125.6828,118.019 C125.6828,118.019 125.9938,118.201 126.5758,118.541 C127.1458,118.9 128.0438,119.355 129.0488,120.131 C129.5588,120.508 130.1448,120.908 130.7328,121.401 C131.3118,121.907 131.9398,122.455 132.6098,123.04 C133.2548,123.652 133.9088,124.337 134.6068,125.058 C135.2908,125.789 135.9418,126.614 136.6608,127.449 C137.3498,128.306 138.0128,129.238 138.7318,130.187 C139.3768,131.178 140.0628,132.198 140.7168,133.275 C141.9888,135.446 143.3028,137.768 144.4168,140.278 C145.5788,142.769 146.5878,145.418 147.5778,148.123 C148.5228,150.841 149.3608,153.644 150.0778,156.473 C150.8208,159.297 151.4398,162.148 151.9848,164.967 C152.4778,167.794 152.9408,170.583 153.2458,173.3 C153.5678,176.014 153.8098,178.647 153.9528,181.152 C154.0988,183.657 154.0728,186.036 153.9478,188.231 C153.8228,190.425 153.5558,192.436 153.2398,194.205 C152.9058,195.977 152.4048,198.232293 151.9848,199.471293 L151.30838,202.310336 C151.30838,202.310336 149.791294,190.341998 149.627294,188.230998 Z" id="Fill-49" fill="#322931"></path>
                <path d="M150.6265,159.5502 C150.6265,159.5502 150.4225,160.0792 150.0665,161.0052 C149.8995,161.4582 149.6645,162.0372 149.3665,162.7212 C149.0835,163.3992 148.7565,164.1572 148.3585,164.9512 C147.9885,165.7582 147.5225,166.6092 147.0275,167.5042 C146.5145,168.3892 145.9605,169.3182 145.3175,170.2312 C144.6945,171.1592 143.9785,172.0622 143.2415,172.9652 C142.4695,173.8392 141.6865,174.7212 140.8305,175.5252 C140.4195,175.9432 139.9885,176.3382 139.5455,176.7142 C139.1035,177.0912 138.6885,177.4932 138.2315,177.8362 C137.3425,178.5552 136.4565,179.2362 135.5705,179.8502 C134.7065,180.4962 133.8145,181.0312 133.0015,181.5822 C132.1665,182.0952 131.3765,182.5802 130.6475,183.0282 C129.1655,183.8792 127.9355,184.5832 127.0545,185.0442 C126.1815,185.5152 125.6825,185.7852 125.6825,185.7852 C125.6825,185.7852 126.1395,185.4492 126.9395,184.8622 C127.7455,184.2862 128.8675,183.4212 130.2055,182.3842 C130.8575,181.8472 131.5655,181.2652 132.3135,180.6492 C133.0305,180.0022 133.8235,179.3632 134.5695,178.6252 C135.3405,177.9152 136.0965,177.1462 136.8425,176.3512 C137.2305,175.9672 137.5675,175.5322 137.9325,175.1232 C138.2985,174.7142 138.6485,174.2912 138.9745,173.8502 C139.6625,172.9982 140.2655,172.0892 140.8555,171.2022 C141.4095,170.2902 141.9395,169.3912 142.3815,168.4812 C142.8435,167.5862 143.2225,166.6842 143.5715,165.8292 C143.9035,164.9632 144.2155,164.1502 144.4475,163.3692 C144.7095,162.5992 144.9035,161.8912 145.0675,161.2652 C145.2415,160.6532 145.3845,160.0922 145.4935,159.5942 C145.7195,158.6282 145.8485,158.0762 145.8485,158.0762 L150.6265,159.5502 Z" id="Fill-51" fill="#322931"></path>
                <path d="M372.319041,399.999656 L372.319041,400.783047 C374.864041,416.017047 343.3974,459.2075 274.8154,478.3315 C257.1484,483.2585 250.796993,479.154499 247.059993,474.905499 L246.445972,473.82991 L265.7924,514.0755 C265.7924,514.0755 270.1094,522.2735 294.4614,514.7445 C360.4564,494.3415 385.3584,458.1785 392.4064,443.8165 C394.0544,440.4595 394.0084,436.5255 392.3114,433.1935 L372.319041,399.999656 Z" id="Fill-61" fill="#CD2973"></path>
            </g>
        </g>
    </g>
</svg>